<mxfile host="Electron" agent="Mozilla/5.0 (Windows NT 10.0; Win64; x64) AppleWebKit/537.36 (KHTML, like Gecko) draw.io/24.7.8 Chrome/128.0.6613.36 Electron/32.0.1 Safari/537.36" version="24.7.8">
  <diagram name="Страница — 1" id="ZbnEzKsrepO7ey-e3gY7">
    <mxGraphModel dx="2206" dy="2467" grid="1" gridSize="10" guides="1" tooltips="1" connect="1" arrows="1" fold="1" page="1" pageScale="1" pageWidth="827" pageHeight="1169" math="0" shadow="0">
      <root>
        <mxCell id="0" />
        <mxCell id="1" parent="0" />
        <mxCell id="v-zuehBViibcG6SIbHql-1" value="Window Title" style="strokeWidth=1;shadow=0;dashed=0;align=center;html=1;shape=mxgraph.mockup.containers.window;align=left;verticalAlign=top;spacingLeft=8;strokeColor2=#008cff;strokeColor3=#c4c4c4;fontColor=#666666;mainText=;fontSize=17;labelBackgroundColor=none;whiteSpace=wrap;" parent="1" vertex="1">
          <mxGeometry x="40" y="120" width="800" height="600" as="geometry" />
        </mxCell>
        <mxCell id="v-zuehBViibcG6SIbHql-7" value="" style="rounded=0;whiteSpace=wrap;html=1;" parent="1" vertex="1">
          <mxGeometry x="40" y="150" width="800" height="40" as="geometry" />
        </mxCell>
        <mxCell id="v-zuehBViibcG6SIbHql-8" value="&lt;font style=&quot;font-size: 14px;&quot;&gt;Сотрудники&lt;/font&gt;" style="rounded=1;whiteSpace=wrap;html=1;fillColor=#dae8fc;strokeColor=#6c8ebf;" parent="1" vertex="1">
          <mxGeometry x="50" y="155" width="100" height="30" as="geometry" />
        </mxCell>
        <mxCell id="v-zuehBViibcG6SIbHql-9" value="&lt;font style=&quot;font-size: 14px;&quot;&gt;Заказы&lt;/font&gt;" style="rounded=1;whiteSpace=wrap;html=1;" parent="1" vertex="1">
          <mxGeometry x="160" y="155" width="100" height="30" as="geometry" />
        </mxCell>
        <mxCell id="v-zuehBViibcG6SIbHql-10" value="&lt;font style=&quot;font-size: 14px;&quot;&gt;Смены&lt;/font&gt;" style="rounded=1;whiteSpace=wrap;html=1;" parent="1" vertex="1">
          <mxGeometry x="270" y="155" width="100" height="30" as="geometry" />
        </mxCell>
        <mxCell id="v-zuehBViibcG6SIbHql-19" value="&lt;font style=&quot;font-size: 14px;&quot;&gt;Добавить&lt;/font&gt;" style="rounded=1;whiteSpace=wrap;html=1;fillColor=#d5e8d4;strokeColor=#82b366;" parent="1" vertex="1">
          <mxGeometry x="727" y="155" width="100" height="30" as="geometry" />
        </mxCell>
        <mxCell id="v-zuehBViibcG6SIbHql-40" value="" style="rounded=1;whiteSpace=wrap;html=1;" parent="1" vertex="1">
          <mxGeometry x="115" y="210" width="650" height="110" as="geometry" />
        </mxCell>
        <mxCell id="v-zuehBViibcG6SIbHql-45" value="" style="rounded=1;whiteSpace=wrap;html=1;" parent="1" vertex="1">
          <mxGeometry x="115" y="340" width="650" height="110" as="geometry" />
        </mxCell>
        <mxCell id="v-zuehBViibcG6SIbHql-46" value="" style="rounded=1;whiteSpace=wrap;html=1;" parent="1" vertex="1">
          <mxGeometry x="115" y="470" width="650" height="110" as="geometry" />
        </mxCell>
        <mxCell id="v-zuehBViibcG6SIbHql-47" value="" style="rounded=1;whiteSpace=wrap;html=1;" parent="1" vertex="1">
          <mxGeometry x="115" y="600" width="650" height="110" as="geometry" />
        </mxCell>
        <mxCell id="v-zuehBViibcG6SIbHql-48" value="" style="verticalLabelPosition=bottom;shadow=0;dashed=0;align=center;html=1;verticalAlign=top;strokeWidth=1;shape=mxgraph.mockup.containers.userMale;strokeColor=#666666;strokeColor2=#008cff;" parent="1" vertex="1">
          <mxGeometry x="140" y="215" width="100" height="100" as="geometry" />
        </mxCell>
        <mxCell id="v-zuehBViibcG6SIbHql-49" value="Работает" style="strokeWidth=1;shadow=0;dashed=0;align=center;html=1;shape=mxgraph.mockup.forms.comboBox;strokeColor=#999999;fillColor=#ddeeff;align=left;fillColor2=#aaddff;mainText=;fontColor=#666666;fontSize=17;spacingLeft=3;" parent="1" vertex="1">
          <mxGeometry x="590" y="250" width="150" height="30" as="geometry" />
        </mxCell>
        <mxCell id="v-zuehBViibcG6SIbHql-50" value="" style="verticalLabelPosition=bottom;shadow=0;dashed=0;align=center;html=1;verticalAlign=top;strokeWidth=1;shape=mxgraph.mockup.containers.userMale;strokeColor=#666666;strokeColor2=#008cff;" parent="1" vertex="1">
          <mxGeometry x="140" y="345" width="100" height="100" as="geometry" />
        </mxCell>
        <mxCell id="v-zuehBViibcG6SIbHql-51" value="Уволен" style="strokeWidth=1;shadow=0;dashed=0;align=center;html=1;shape=mxgraph.mockup.forms.comboBox;strokeColor=#999999;fillColor=#ddeeff;align=left;fillColor2=#aaddff;mainText=;fontColor=#666666;fontSize=17;spacingLeft=3;" parent="1" vertex="1">
          <mxGeometry x="590" y="380" width="150" height="30" as="geometry" />
        </mxCell>
        <mxCell id="v-zuehBViibcG6SIbHql-52" value="&lt;font style=&quot;font-size: 14px;&quot;&gt;Иван Иванович Иванов&lt;/font&gt;" style="text;html=1;align=center;verticalAlign=middle;whiteSpace=wrap;rounded=0;" parent="1" vertex="1">
          <mxGeometry x="260" y="250" width="170" height="30" as="geometry" />
        </mxCell>
        <mxCell id="v-zuehBViibcG6SIbHql-53" value="&lt;font style=&quot;font-size: 14px;&quot;&gt;Степан Степанович Степанов&lt;/font&gt;" style="text;html=1;align=center;verticalAlign=middle;whiteSpace=wrap;rounded=0;" parent="1" vertex="1">
          <mxGeometry x="260" y="380" width="210" height="30" as="geometry" />
        </mxCell>
        <mxCell id="v-zuehBViibcG6SIbHql-54" value="Window Title" style="strokeWidth=1;shadow=0;dashed=0;align=center;html=1;shape=mxgraph.mockup.containers.window;align=left;verticalAlign=top;spacingLeft=8;strokeColor2=#008cff;strokeColor3=#c4c4c4;fontColor=#666666;mainText=;fontSize=17;labelBackgroundColor=none;whiteSpace=wrap;" parent="1" vertex="1">
          <mxGeometry x="920" y="120" width="800" height="600" as="geometry" />
        </mxCell>
        <mxCell id="v-zuehBViibcG6SIbHql-55" value="" style="verticalLabelPosition=bottom;verticalAlign=top;html=1;shape=mxgraph.basic.rect;fillColor2=none;strokeWidth=1;size=20;indent=5;align=left;" parent="1" vertex="1">
          <mxGeometry x="1040" y="230" width="470" height="30" as="geometry" />
        </mxCell>
        <mxCell id="v-zuehBViibcG6SIbHql-56" value="&lt;font style=&quot;font-size: 14px;&quot;&gt;Добавление нового сотрудника&lt;/font&gt;" style="text;html=1;align=center;verticalAlign=middle;whiteSpace=wrap;rounded=0;" parent="1" vertex="1">
          <mxGeometry x="950" y="170" width="210" height="30" as="geometry" />
        </mxCell>
        <mxCell id="v-zuehBViibcG6SIbHql-57" value="&lt;font style=&quot;font-size: 14px;&quot;&gt;Фио&lt;/font&gt;" style="text;html=1;align=center;verticalAlign=middle;whiteSpace=wrap;rounded=0;" parent="1" vertex="1">
          <mxGeometry x="970" y="230" width="60" height="30" as="geometry" />
        </mxCell>
        <mxCell id="v-zuehBViibcG6SIbHql-63" value="" style="verticalLabelPosition=bottom;verticalAlign=top;html=1;shape=mxgraph.basic.rect;fillColor2=none;strokeWidth=1;size=20;indent=5;" parent="1" vertex="1">
          <mxGeometry x="1040" y="315" width="470" height="30" as="geometry" />
        </mxCell>
        <mxCell id="v-zuehBViibcG6SIbHql-64" value="&lt;font style=&quot;font-size: 14px;&quot;&gt;Пол&lt;/font&gt;" style="text;html=1;align=center;verticalAlign=middle;whiteSpace=wrap;rounded=0;" parent="1" vertex="1">
          <mxGeometry x="970" y="270" width="60" height="30" as="geometry" />
        </mxCell>
        <mxCell id="v-zuehBViibcG6SIbHql-65" value="Мужской" style="strokeWidth=1;shadow=0;dashed=0;align=center;html=1;shape=mxgraph.mockup.forms.comboBox;strokeColor=#999999;fillColor=#ddeeff;align=left;fillColor2=#aaddff;mainText=;fontColor=#666666;fontSize=17;spacingLeft=3;" parent="1" vertex="1">
          <mxGeometry x="1040" y="270" width="470" height="30" as="geometry" />
        </mxCell>
        <mxCell id="v-zuehBViibcG6SIbHql-66" value="" style="verticalLabelPosition=bottom;verticalAlign=top;html=1;shape=mxgraph.basic.rect;fillColor2=none;strokeWidth=1;size=20;indent=5;" parent="1" vertex="1">
          <mxGeometry x="1040" y="360" width="470" height="30" as="geometry" />
        </mxCell>
        <mxCell id="v-zuehBViibcG6SIbHql-67" value="&lt;font style=&quot;font-size: 14px;&quot;&gt;Роль&lt;/font&gt;" style="text;html=1;align=center;verticalAlign=middle;whiteSpace=wrap;rounded=0;" parent="1" vertex="1">
          <mxGeometry x="970" y="315" width="60" height="30" as="geometry" />
        </mxCell>
        <mxCell id="v-zuehBViibcG6SIbHql-70" value="Организатор" style="strokeWidth=1;shadow=0;dashed=0;align=center;html=1;shape=mxgraph.mockup.forms.comboBox;strokeColor=#999999;fillColor=#ddeeff;align=left;fillColor2=#aaddff;mainText=;fontColor=#666666;fontSize=17;spacingLeft=3;" parent="1" vertex="1">
          <mxGeometry x="1040" y="315" width="470" height="30" as="geometry" />
        </mxCell>
        <mxCell id="v-zuehBViibcG6SIbHql-75" value="&lt;font style=&quot;font-size: 14px;&quot;&gt;Логин&lt;/font&gt;" style="text;html=1;align=center;verticalAlign=middle;whiteSpace=wrap;rounded=0;" parent="1" vertex="1">
          <mxGeometry x="970" y="360" width="60" height="30" as="geometry" />
        </mxCell>
        <mxCell id="v-zuehBViibcG6SIbHql-76" value="" style="verticalLabelPosition=bottom;verticalAlign=top;html=1;shape=mxgraph.basic.rect;fillColor2=none;strokeWidth=1;size=20;indent=5;" parent="1" vertex="1">
          <mxGeometry x="1041" y="405" width="470" height="30" as="geometry" />
        </mxCell>
        <mxCell id="v-zuehBViibcG6SIbHql-77" value="&lt;font style=&quot;font-size: 14px;&quot;&gt;Пароль&lt;/font&gt;" style="text;html=1;align=center;verticalAlign=middle;whiteSpace=wrap;rounded=0;" parent="1" vertex="1">
          <mxGeometry x="971" y="405" width="60" height="30" as="geometry" />
        </mxCell>
        <mxCell id="v-zuehBViibcG6SIbHql-78" value="Window Title" style="strokeWidth=1;shadow=0;dashed=0;align=center;html=1;shape=mxgraph.mockup.containers.window;align=left;verticalAlign=top;spacingLeft=8;strokeColor2=#008cff;strokeColor3=#c4c4c4;fontColor=#666666;mainText=;fontSize=17;labelBackgroundColor=none;whiteSpace=wrap;" parent="1" vertex="1">
          <mxGeometry x="40" y="800" width="800" height="600" as="geometry" />
        </mxCell>
        <mxCell id="v-zuehBViibcG6SIbHql-79" value="" style="rounded=0;whiteSpace=wrap;html=1;" parent="1" vertex="1">
          <mxGeometry x="40" y="830" width="800" height="40" as="geometry" />
        </mxCell>
        <mxCell id="v-zuehBViibcG6SIbHql-80" value="&lt;font style=&quot;font-size: 14px;&quot;&gt;Сотрудники&lt;/font&gt;" style="rounded=1;whiteSpace=wrap;html=1;" parent="1" vertex="1">
          <mxGeometry x="50" y="835" width="100" height="30" as="geometry" />
        </mxCell>
        <mxCell id="v-zuehBViibcG6SIbHql-81" value="&lt;font style=&quot;font-size: 14px;&quot;&gt;Заказы&lt;/font&gt;" style="rounded=1;whiteSpace=wrap;html=1;" parent="1" vertex="1">
          <mxGeometry x="160" y="835" width="100" height="30" as="geometry" />
        </mxCell>
        <mxCell id="v-zuehBViibcG6SIbHql-82" value="&lt;font style=&quot;font-size: 14px;&quot;&gt;Смены&lt;/font&gt;" style="rounded=1;whiteSpace=wrap;html=1;fillColor=#dae8fc;strokeColor=#6c8ebf;" parent="1" vertex="1">
          <mxGeometry x="270" y="835" width="100" height="30" as="geometry" />
        </mxCell>
        <mxCell id="v-zuehBViibcG6SIbHql-83" value="&lt;font style=&quot;font-size: 14px;&quot;&gt;Добавить&lt;/font&gt;" style="rounded=1;whiteSpace=wrap;html=1;fillColor=#d5e8d4;strokeColor=#82b366;" parent="1" vertex="1">
          <mxGeometry x="727" y="835" width="100" height="30" as="geometry" />
        </mxCell>
        <mxCell id="v-zuehBViibcG6SIbHql-84" value="" style="rounded=1;whiteSpace=wrap;html=1;" parent="1" vertex="1">
          <mxGeometry x="115" y="900" width="650" height="110" as="geometry" />
        </mxCell>
        <mxCell id="v-zuehBViibcG6SIbHql-85" value="" style="rounded=1;whiteSpace=wrap;html=1;" parent="1" vertex="1">
          <mxGeometry x="115" y="1030" width="650" height="110" as="geometry" />
        </mxCell>
        <mxCell id="v-zuehBViibcG6SIbHql-88" value="&lt;font style=&quot;font-size: 16px;&quot;&gt;Смена 1&lt;/font&gt;" style="text;html=1;align=center;verticalAlign=middle;whiteSpace=wrap;rounded=0;" parent="1" vertex="1">
          <mxGeometry x="170" y="940" width="80" height="30" as="geometry" />
        </mxCell>
        <mxCell id="v-zuehBViibcG6SIbHql-89" value="Время начала" style="text;html=1;align=center;verticalAlign=middle;whiteSpace=wrap;rounded=0;" parent="1" vertex="1">
          <mxGeometry x="400" y="940" width="100" height="30" as="geometry" />
        </mxCell>
        <mxCell id="v-zuehBViibcG6SIbHql-90" value="Время окончания" style="text;html=1;align=center;verticalAlign=middle;whiteSpace=wrap;rounded=0;" parent="1" vertex="1">
          <mxGeometry x="510" y="940" width="100" height="30" as="geometry" />
        </mxCell>
        <mxCell id="v-zuehBViibcG6SIbHql-91" value="&lt;font style=&quot;font-size: 16px;&quot;&gt;Смена 2&lt;/font&gt;" style="text;html=1;align=center;verticalAlign=middle;whiteSpace=wrap;rounded=0;" parent="1" vertex="1">
          <mxGeometry x="170" y="1070" width="80" height="30" as="geometry" />
        </mxCell>
        <mxCell id="v-zuehBViibcG6SIbHql-92" value="Время начала" style="text;html=1;align=center;verticalAlign=middle;whiteSpace=wrap;rounded=0;" parent="1" vertex="1">
          <mxGeometry x="400" y="1070" width="100" height="30" as="geometry" />
        </mxCell>
        <mxCell id="v-zuehBViibcG6SIbHql-93" value="Время окончания" style="text;html=1;align=center;verticalAlign=middle;whiteSpace=wrap;rounded=0;" parent="1" vertex="1">
          <mxGeometry x="510" y="1070" width="100" height="30" as="geometry" />
        </mxCell>
        <mxCell id="v-zuehBViibcG6SIbHql-95" value="Window Title" style="strokeWidth=1;shadow=0;dashed=0;align=center;html=1;shape=mxgraph.mockup.containers.window;align=left;verticalAlign=top;spacingLeft=8;strokeColor2=#008cff;strokeColor3=#c4c4c4;fontColor=#666666;mainText=;fontSize=17;labelBackgroundColor=none;whiteSpace=wrap;" parent="1" vertex="1">
          <mxGeometry x="920" y="800" width="800" height="600" as="geometry" />
        </mxCell>
        <mxCell id="v-zuehBViibcG6SIbHql-96" value="&lt;font style=&quot;font-size: 14px;&quot;&gt;Добавление новой смены&lt;/font&gt;" style="text;html=1;align=center;verticalAlign=middle;whiteSpace=wrap;rounded=0;" parent="1" vertex="1">
          <mxGeometry x="950" y="850" width="210" height="30" as="geometry" />
        </mxCell>
        <mxCell id="v-zuehBViibcG6SIbHql-97" value="" style="verticalLabelPosition=bottom;verticalAlign=top;html=1;shape=mxgraph.basic.rect;fillColor2=none;strokeWidth=1;size=20;indent=5;align=left;" parent="1" vertex="1">
          <mxGeometry x="1040" y="910" width="470" height="30" as="geometry" />
        </mxCell>
        <mxCell id="v-zuehBViibcG6SIbHql-98" value="&lt;font style=&quot;font-size: 14px;&quot;&gt;Название&lt;/font&gt;" style="text;html=1;align=center;verticalAlign=middle;whiteSpace=wrap;rounded=0;" parent="1" vertex="1">
          <mxGeometry x="970" y="910" width="60" height="30" as="geometry" />
        </mxCell>
        <mxCell id="v-zuehBViibcG6SIbHql-104" value="" style="verticalLabelPosition=bottom;verticalAlign=top;html=1;shape=mxgraph.basic.rect;fillColor2=none;strokeWidth=1;size=20;indent=5;align=left;" parent="1" vertex="1">
          <mxGeometry x="1040" y="960" width="470" height="30" as="geometry" />
        </mxCell>
        <mxCell id="v-zuehBViibcG6SIbHql-105" value="&lt;font style=&quot;font-size: 14px;&quot;&gt;Время начала&lt;/font&gt;" style="text;html=1;align=center;verticalAlign=middle;whiteSpace=wrap;rounded=0;" parent="1" vertex="1">
          <mxGeometry x="970" y="960" width="60" height="30" as="geometry" />
        </mxCell>
        <mxCell id="v-zuehBViibcG6SIbHql-106" value="" style="verticalLabelPosition=bottom;verticalAlign=top;html=1;shape=mxgraph.basic.rect;fillColor2=none;strokeWidth=1;size=20;indent=5;align=left;" parent="1" vertex="1">
          <mxGeometry x="1040" y="1010" width="470" height="30" as="geometry" />
        </mxCell>
        <mxCell id="v-zuehBViibcG6SIbHql-107" value="&lt;font style=&quot;font-size: 14px;&quot;&gt;Время окончания&lt;/font&gt;" style="text;html=1;align=center;verticalAlign=middle;whiteSpace=wrap;rounded=0;" parent="1" vertex="1">
          <mxGeometry x="970" y="1010" width="60" height="30" as="geometry" />
        </mxCell>
        <mxCell id="dQxUoV89eo8RBb08aWmi-1" value="&lt;h4 style=&quot;box-sizing: border-box; margin-top: var(--base-size-24); margin-bottom: var(--base-size-16); font-weight: var(--base-text-weight-semibold, 600); line-height: 1.25; color: rgb(31, 35, 40); font-family: -apple-system, BlinkMacSystemFont, &amp;quot;Segoe UI&amp;quot;, &amp;quot;Noto Sans&amp;quot;, Helvetica, Arial, sans-serif, &amp;quot;Apple Color Emoji&amp;quot;, &amp;quot;Segoe UI Emoji&amp;quot;; text-align: start; background-color: rgb(255, 255, 255);&quot; dir=&quot;auto&quot; class=&quot;heading-element&quot; tabindex=&quot;-1&quot;&gt;&lt;font style=&quot;font-size: 32px;&quot;&gt;Окна заведующего подразделением&lt;/font&gt;&lt;/h4&gt;" style="text;html=1;align=center;verticalAlign=middle;whiteSpace=wrap;rounded=0;" vertex="1" parent="1">
          <mxGeometry x="40" y="40" width="680" height="40" as="geometry" />
        </mxCell>
        <mxCell id="dQxUoV89eo8RBb08aWmi-3" value="&lt;h4 style=&quot;box-sizing: border-box; margin-top: var(--base-size-24); margin-bottom: var(--base-size-16); font-weight: var(--base-text-weight-semibold, 600); line-height: 1.25; color: rgb(31, 35, 40); font-family: -apple-system, BlinkMacSystemFont, &amp;quot;Segoe UI&amp;quot;, &amp;quot;Noto Sans&amp;quot;, Helvetica, Arial, sans-serif, &amp;quot;Apple Color Emoji&amp;quot;, &amp;quot;Segoe UI Emoji&amp;quot;; text-align: start; background-color: rgb(255, 255, 255);&quot; dir=&quot;auto&quot; class=&quot;heading-element&quot; tabindex=&quot;-1&quot;&gt;&lt;font style=&quot;font-size: 32px;&quot;&gt;Окно техника&lt;/font&gt;&lt;/h4&gt;" style="text;html=1;align=center;verticalAlign=middle;whiteSpace=wrap;rounded=0;" vertex="1" parent="1">
          <mxGeometry x="40" y="1480" width="680" height="40" as="geometry" />
        </mxCell>
        <mxCell id="dQxUoV89eo8RBb08aWmi-4" value="Window Title" style="strokeWidth=1;shadow=0;dashed=0;align=center;html=1;shape=mxgraph.mockup.containers.window;align=left;verticalAlign=top;spacingLeft=8;strokeColor2=#008cff;strokeColor3=#c4c4c4;fontColor=#666666;mainText=;fontSize=17;labelBackgroundColor=none;whiteSpace=wrap;" vertex="1" parent="1">
          <mxGeometry x="40" y="1560" width="800" height="600" as="geometry" />
        </mxCell>
        <mxCell id="dQxUoV89eo8RBb08aWmi-5" value="Window Title" style="strokeWidth=1;shadow=0;dashed=0;align=center;html=1;shape=mxgraph.mockup.containers.window;align=left;verticalAlign=top;spacingLeft=8;strokeColor2=#008cff;strokeColor3=#c4c4c4;fontColor=#666666;mainText=;fontSize=17;labelBackgroundColor=none;whiteSpace=wrap;" vertex="1" parent="1">
          <mxGeometry x="40" y="-640" width="800" height="600" as="geometry" />
        </mxCell>
        <mxCell id="dQxUoV89eo8RBb08aWmi-6" value="&lt;h4 style=&quot;box-sizing: border-box; margin-top: var(--base-size-24); margin-bottom: var(--base-size-16); font-weight: var(--base-text-weight-semibold, 600); line-height: 1.25; color: rgb(31, 35, 40); font-family: -apple-system, BlinkMacSystemFont, &amp;quot;Segoe UI&amp;quot;, &amp;quot;Noto Sans&amp;quot;, Helvetica, Arial, sans-serif, &amp;quot;Apple Color Emoji&amp;quot;, &amp;quot;Segoe UI Emoji&amp;quot;; text-align: start; background-color: rgb(255, 255, 255);&quot; dir=&quot;auto&quot; class=&quot;heading-element&quot; tabindex=&quot;-1&quot;&gt;&lt;font style=&quot;font-size: 32px;&quot;&gt;Окно регистрации&lt;/font&gt;&lt;/h4&gt;" style="text;html=1;align=center;verticalAlign=middle;whiteSpace=wrap;rounded=0;" vertex="1" parent="1">
          <mxGeometry x="40" y="-720" width="680" height="40" as="geometry" />
        </mxCell>
        <mxCell id="dQxUoV89eo8RBb08aWmi-7" value="" style="strokeWidth=1;shadow=0;dashed=0;align=center;html=1;shape=mxgraph.mockup.forms.rrect;rSize=0;strokeColor=#999999;fillColor=#ffffff;" vertex="1" parent="1">
          <mxGeometry x="300" y="-470" width="280" height="260" as="geometry" />
        </mxCell>
        <mxCell id="dQxUoV89eo8RBb08aWmi-8" value="Авторизация" style="strokeWidth=1;shadow=0;dashed=0;align=center;html=1;shape=mxgraph.mockup.forms.anchor;fontSize=12;fontColor=#666666;align=left;resizeWidth=1;spacingLeft=0;" vertex="1" parent="dQxUoV89eo8RBb08aWmi-7">
          <mxGeometry width="140" height="20" relative="1" as="geometry">
            <mxPoint x="10" y="10" as="offset" />
          </mxGeometry>
        </mxCell>
        <mxCell id="dQxUoV89eo8RBb08aWmi-9" value="" style="shape=line;strokeColor=#ddeeff;strokeWidth=2;html=1;resizeWidth=1;" vertex="1" parent="dQxUoV89eo8RBb08aWmi-7">
          <mxGeometry width="251.99999999999997" height="10" relative="1" as="geometry">
            <mxPoint x="10" y="30" as="offset" />
          </mxGeometry>
        </mxCell>
        <mxCell id="dQxUoV89eo8RBb08aWmi-10" value="Логин" style="strokeWidth=1;shadow=0;dashed=0;align=center;html=1;shape=mxgraph.mockup.forms.anchor;fontSize=12;fontColor=#666666;align=left;resizeWidth=1;spacingLeft=0;" vertex="1" parent="dQxUoV89eo8RBb08aWmi-7">
          <mxGeometry width="140" height="20" relative="1" as="geometry">
            <mxPoint x="10" y="50" as="offset" />
          </mxGeometry>
        </mxCell>
        <mxCell id="dQxUoV89eo8RBb08aWmi-11" value="johndoe" style="strokeWidth=1;shadow=0;dashed=0;align=center;html=1;shape=mxgraph.mockup.forms.rrect;rSize=0;strokeColor=#999999;fontColor=#666666;align=left;spacingLeft=5;resizeWidth=1;" vertex="1" parent="dQxUoV89eo8RBb08aWmi-7">
          <mxGeometry width="260" height="25" relative="1" as="geometry">
            <mxPoint x="9" y="80" as="offset" />
          </mxGeometry>
        </mxCell>
        <mxCell id="dQxUoV89eo8RBb08aWmi-12" value="Пароль" style="strokeWidth=1;shadow=0;dashed=0;align=center;html=1;shape=mxgraph.mockup.forms.anchor;fontSize=12;fontColor=#666666;align=left;resizeWidth=1;spacingLeft=0;" vertex="1" parent="dQxUoV89eo8RBb08aWmi-7">
          <mxGeometry width="140" height="20" relative="1" as="geometry">
            <mxPoint x="10" y="120" as="offset" />
          </mxGeometry>
        </mxCell>
        <mxCell id="dQxUoV89eo8RBb08aWmi-13" value="********" style="strokeWidth=1;shadow=0;dashed=0;align=center;html=1;shape=mxgraph.mockup.forms.rrect;rSize=0;strokeColor=#999999;fontColor=#666666;align=left;spacingLeft=5;resizeWidth=1;" vertex="1" parent="dQxUoV89eo8RBb08aWmi-7">
          <mxGeometry width="260" height="25" relative="1" as="geometry">
            <mxPoint x="9" y="150" as="offset" />
          </mxGeometry>
        </mxCell>
        <mxCell id="dQxUoV89eo8RBb08aWmi-14" value="SIGN IN" style="strokeWidth=1;shadow=0;dashed=0;align=center;html=1;shape=mxgraph.mockup.forms.rrect;rSize=5;strokeColor=none;fontColor=#ffffff;fillColor=#66bbff;fontSize=16;fontStyle=1;" vertex="1" parent="dQxUoV89eo8RBb08aWmi-7">
          <mxGeometry y="1" width="100" height="41" relative="1" as="geometry">
            <mxPoint x="90" y="-60" as="offset" />
          </mxGeometry>
        </mxCell>
        <mxCell id="dQxUoV89eo8RBb08aWmi-19" value="" style="rounded=1;whiteSpace=wrap;html=1;" vertex="1" parent="1">
          <mxGeometry x="115" y="1620" width="650" height="110" as="geometry" />
        </mxCell>
        <mxCell id="dQxUoV89eo8RBb08aWmi-20" value="&lt;font style=&quot;font-size: 16px;&quot;&gt;Название&lt;/font&gt;" style="text;html=1;align=center;verticalAlign=middle;whiteSpace=wrap;rounded=0;" vertex="1" parent="1">
          <mxGeometry x="150" y="1660" width="80" height="30" as="geometry" />
        </mxCell>
        <mxCell id="dQxUoV89eo8RBb08aWmi-21" value="&lt;font style=&quot;font-size: 16px;&quot;&gt;Время&lt;/font&gt;" style="text;html=1;align=center;verticalAlign=middle;whiteSpace=wrap;rounded=0;" vertex="1" parent="1">
          <mxGeometry x="250" y="1660" width="80" height="30" as="geometry" />
        </mxCell>
        <mxCell id="dQxUoV89eo8RBb08aWmi-22" value="&lt;font style=&quot;font-size: 16px;&quot;&gt;Кол-во гостей&lt;/font&gt;" style="text;html=1;align=center;verticalAlign=middle;whiteSpace=wrap;rounded=0;" vertex="1" parent="1">
          <mxGeometry x="350" y="1660" width="80" height="30" as="geometry" />
        </mxCell>
        <mxCell id="dQxUoV89eo8RBb08aWmi-24" value="Статус заказа" style="strokeWidth=1;shadow=0;dashed=0;align=center;html=1;shape=mxgraph.mockup.forms.comboBox;strokeColor=#999999;fillColor=#ddeeff;align=left;fillColor2=#aaddff;mainText=;fontColor=#666666;fontSize=17;spacingLeft=3;" vertex="1" parent="1">
          <mxGeometry x="590" y="1660" width="150" height="30" as="geometry" />
        </mxCell>
        <mxCell id="dQxUoV89eo8RBb08aWmi-26" value="" style="rounded=1;whiteSpace=wrap;html=1;" vertex="1" parent="1">
          <mxGeometry x="115" y="1754" width="650" height="110" as="geometry" />
        </mxCell>
        <mxCell id="dQxUoV89eo8RBb08aWmi-27" value="&lt;font style=&quot;font-size: 16px;&quot;&gt;Название&lt;/font&gt;" style="text;html=1;align=center;verticalAlign=middle;whiteSpace=wrap;rounded=0;" vertex="1" parent="1">
          <mxGeometry x="150" y="1794" width="80" height="30" as="geometry" />
        </mxCell>
        <mxCell id="dQxUoV89eo8RBb08aWmi-28" value="&lt;font style=&quot;font-size: 16px;&quot;&gt;Время&lt;/font&gt;" style="text;html=1;align=center;verticalAlign=middle;whiteSpace=wrap;rounded=0;" vertex="1" parent="1">
          <mxGeometry x="250" y="1794" width="80" height="30" as="geometry" />
        </mxCell>
        <mxCell id="dQxUoV89eo8RBb08aWmi-29" value="&lt;font style=&quot;font-size: 16px;&quot;&gt;Кол-во гостей&lt;/font&gt;" style="text;html=1;align=center;verticalAlign=middle;whiteSpace=wrap;rounded=0;" vertex="1" parent="1">
          <mxGeometry x="350" y="1794" width="80" height="30" as="geometry" />
        </mxCell>
        <mxCell id="dQxUoV89eo8RBb08aWmi-30" value="Статус заказа" style="strokeWidth=1;shadow=0;dashed=0;align=center;html=1;shape=mxgraph.mockup.forms.comboBox;strokeColor=#999999;fillColor=#ddeeff;align=left;fillColor2=#aaddff;mainText=;fontColor=#666666;fontSize=17;spacingLeft=3;" vertex="1" parent="1">
          <mxGeometry x="590" y="1794" width="150" height="30" as="geometry" />
        </mxCell>
        <mxCell id="dQxUoV89eo8RBb08aWmi-35" value="&lt;h4 style=&quot;box-sizing: border-box; margin-top: var(--base-size-24); margin-bottom: var(--base-size-16); font-weight: var(--base-text-weight-semibold, 600); line-height: 1.25; color: rgb(31, 35, 40); font-family: -apple-system, BlinkMacSystemFont, &amp;quot;Segoe UI&amp;quot;, &amp;quot;Noto Sans&amp;quot;, Helvetica, Arial, sans-serif, &amp;quot;Apple Color Emoji&amp;quot;, &amp;quot;Segoe UI Emoji&amp;quot;; text-align: start; background-color: rgb(255, 255, 255);&quot; dir=&quot;auto&quot; class=&quot;heading-element&quot; tabindex=&quot;-1&quot;&gt;&lt;span style=&quot;font-size: 32px;&quot;&gt;Окно огранизатора&lt;/span&gt;&lt;/h4&gt;" style="text;html=1;align=center;verticalAlign=middle;whiteSpace=wrap;rounded=0;" vertex="1" parent="1">
          <mxGeometry x="40" y="2240" width="680" height="40" as="geometry" />
        </mxCell>
        <mxCell id="dQxUoV89eo8RBb08aWmi-36" value="Window Title" style="strokeWidth=1;shadow=0;dashed=0;align=center;html=1;shape=mxgraph.mockup.containers.window;align=left;verticalAlign=top;spacingLeft=8;strokeColor2=#008cff;strokeColor3=#c4c4c4;fontColor=#666666;mainText=;fontSize=17;labelBackgroundColor=none;whiteSpace=wrap;" vertex="1" parent="1">
          <mxGeometry x="40" y="2320" width="800" height="600" as="geometry" />
        </mxCell>
        <mxCell id="dQxUoV89eo8RBb08aWmi-37" value="" style="rounded=1;whiteSpace=wrap;html=1;" vertex="1" parent="1">
          <mxGeometry x="115" y="2440" width="650" height="110" as="geometry" />
        </mxCell>
        <mxCell id="dQxUoV89eo8RBb08aWmi-38" value="" style="rounded=1;whiteSpace=wrap;html=1;" vertex="1" parent="1">
          <mxGeometry x="115" y="2574" width="650" height="110" as="geometry" />
        </mxCell>
        <mxCell id="dQxUoV89eo8RBb08aWmi-40" value="" style="rounded=0;whiteSpace=wrap;html=1;" vertex="1" parent="1">
          <mxGeometry x="40" y="2350" width="800" height="50" as="geometry" />
        </mxCell>
        <mxCell id="dQxUoV89eo8RBb08aWmi-42" value="&lt;font style=&quot;font-size: 14px;&quot;&gt;Добавить&lt;/font&gt;" style="rounded=1;whiteSpace=wrap;html=1;fillColor=#d5e8d4;strokeColor=#82b366;" vertex="1" parent="1">
          <mxGeometry x="707" y="2355" width="120" height="40" as="geometry" />
        </mxCell>
        <mxCell id="dQxUoV89eo8RBb08aWmi-47" value="&lt;font style=&quot;font-size: 16px;&quot;&gt;Название&lt;/font&gt;" style="text;html=1;align=center;verticalAlign=middle;whiteSpace=wrap;rounded=0;" vertex="1" parent="1">
          <mxGeometry x="140" y="2480" width="80" height="30" as="geometry" />
        </mxCell>
        <mxCell id="dQxUoV89eo8RBb08aWmi-48" value="&lt;font style=&quot;font-size: 16px;&quot;&gt;Время&lt;/font&gt;" style="text;html=1;align=center;verticalAlign=middle;whiteSpace=wrap;rounded=0;" vertex="1" parent="1">
          <mxGeometry x="220" y="2480" width="80" height="30" as="geometry" />
        </mxCell>
        <mxCell id="dQxUoV89eo8RBb08aWmi-49" value="&lt;font style=&quot;font-size: 16px;&quot;&gt;Кол-во гостей&lt;/font&gt;" style="text;html=1;align=center;verticalAlign=middle;whiteSpace=wrap;rounded=0;" vertex="1" parent="1">
          <mxGeometry x="305" y="2480" width="80" height="30" as="geometry" />
        </mxCell>
        <mxCell id="dQxUoV89eo8RBb08aWmi-50" value="&lt;span style=&quot;font-size: 16px;&quot;&gt;Оборудывание&lt;/span&gt;" style="text;html=1;align=center;verticalAlign=middle;whiteSpace=wrap;rounded=0;" vertex="1" parent="1">
          <mxGeometry x="400" y="2480" width="80" height="30" as="geometry" />
        </mxCell>
        <mxCell id="dQxUoV89eo8RBb08aWmi-51" value="&lt;span style=&quot;font-size: 16px;&quot;&gt;Статус оплаты&lt;/span&gt;" style="text;html=1;align=center;verticalAlign=middle;whiteSpace=wrap;rounded=0;" vertex="1" parent="1">
          <mxGeometry x="510" y="2480" width="80" height="30" as="geometry" />
        </mxCell>
        <mxCell id="dQxUoV89eo8RBb08aWmi-52" value="Статус заказа" style="strokeWidth=1;shadow=0;dashed=0;align=center;html=1;shape=mxgraph.mockup.forms.comboBox;strokeColor=#999999;fillColor=#ddeeff;align=left;fillColor2=#aaddff;mainText=;fontColor=#666666;fontSize=17;spacingLeft=3;" vertex="1" parent="1">
          <mxGeometry x="600" y="2480" width="150" height="30" as="geometry" />
        </mxCell>
        <mxCell id="dQxUoV89eo8RBb08aWmi-53" value="Window Title" style="strokeWidth=1;shadow=0;dashed=0;align=center;html=1;shape=mxgraph.mockup.containers.window;align=left;verticalAlign=top;spacingLeft=8;strokeColor2=#008cff;strokeColor3=#c4c4c4;fontColor=#666666;mainText=;fontSize=17;labelBackgroundColor=none;whiteSpace=wrap;" vertex="1" parent="1">
          <mxGeometry x="920" y="2323" width="800" height="600" as="geometry" />
        </mxCell>
        <mxCell id="dQxUoV89eo8RBb08aWmi-54" value="&lt;font style=&quot;font-size: 14px;&quot;&gt;Добавление нового заказа&lt;/font&gt;" style="text;html=1;align=center;verticalAlign=middle;whiteSpace=wrap;rounded=0;" vertex="1" parent="1">
          <mxGeometry x="950" y="2373" width="210" height="30" as="geometry" />
        </mxCell>
        <mxCell id="dQxUoV89eo8RBb08aWmi-55" value="" style="verticalLabelPosition=bottom;verticalAlign=top;html=1;shape=mxgraph.basic.rect;fillColor2=none;strokeWidth=1;size=20;indent=5;align=left;" vertex="1" parent="1">
          <mxGeometry x="1040" y="2433" width="470" height="30" as="geometry" />
        </mxCell>
        <mxCell id="dQxUoV89eo8RBb08aWmi-56" value="&lt;font style=&quot;font-size: 14px;&quot;&gt;Название&lt;/font&gt;" style="text;html=1;align=center;verticalAlign=middle;whiteSpace=wrap;rounded=0;" vertex="1" parent="1">
          <mxGeometry x="970" y="2433" width="60" height="30" as="geometry" />
        </mxCell>
        <mxCell id="dQxUoV89eo8RBb08aWmi-57" value="" style="verticalLabelPosition=bottom;verticalAlign=top;html=1;shape=mxgraph.basic.rect;fillColor2=none;strokeWidth=1;size=20;indent=5;align=left;" vertex="1" parent="1">
          <mxGeometry x="1040" y="2483" width="470" height="30" as="geometry" />
        </mxCell>
        <mxCell id="dQxUoV89eo8RBb08aWmi-58" value="&lt;font style=&quot;font-size: 14px;&quot;&gt;Время&lt;/font&gt;" style="text;html=1;align=center;verticalAlign=middle;whiteSpace=wrap;rounded=0;" vertex="1" parent="1">
          <mxGeometry x="970" y="2483" width="60" height="30" as="geometry" />
        </mxCell>
        <mxCell id="dQxUoV89eo8RBb08aWmi-59" value="" style="verticalLabelPosition=bottom;verticalAlign=top;html=1;shape=mxgraph.basic.rect;fillColor2=none;strokeWidth=1;size=20;indent=5;align=left;" vertex="1" parent="1">
          <mxGeometry x="1040" y="2533" width="470" height="30" as="geometry" />
        </mxCell>
        <mxCell id="dQxUoV89eo8RBb08aWmi-60" value="&lt;font style=&quot;font-size: 14px;&quot;&gt;Кол-во гостей&lt;/font&gt;" style="text;html=1;align=center;verticalAlign=middle;whiteSpace=wrap;rounded=0;" vertex="1" parent="1">
          <mxGeometry x="970" y="2533" width="60" height="30" as="geometry" />
        </mxCell>
        <mxCell id="dQxUoV89eo8RBb08aWmi-63" value="" style="verticalLabelPosition=bottom;verticalAlign=top;html=1;shape=mxgraph.basic.rect;fillColor2=none;strokeWidth=1;size=20;indent=5;align=left;" vertex="1" parent="1">
          <mxGeometry x="1040" y="2580" width="470" height="30" as="geometry" />
        </mxCell>
        <mxCell id="dQxUoV89eo8RBb08aWmi-64" value="&lt;font style=&quot;font-size: 14px;&quot;&gt;Оборудывание&lt;/font&gt;" style="text;html=1;align=center;verticalAlign=middle;whiteSpace=wrap;rounded=0;" vertex="1" parent="1">
          <mxGeometry x="960" y="2580" width="60" height="30" as="geometry" />
        </mxCell>
        <mxCell id="dQxUoV89eo8RBb08aWmi-65" value="" style="verticalLabelPosition=bottom;verticalAlign=top;html=1;shape=mxgraph.basic.rect;fillColor2=none;strokeWidth=1;size=20;indent=5;align=left;" vertex="1" parent="1">
          <mxGeometry x="1041" y="2630" width="470" height="30" as="geometry" />
        </mxCell>
        <mxCell id="dQxUoV89eo8RBb08aWmi-66" value="&lt;font style=&quot;font-size: 14px;&quot;&gt;Статус оплаты&lt;/font&gt;" style="text;html=1;align=center;verticalAlign=middle;whiteSpace=wrap;rounded=0;" vertex="1" parent="1">
          <mxGeometry x="971" y="2630" width="60" height="30" as="geometry" />
        </mxCell>
      </root>
    </mxGraphModel>
  </diagram>
</mxfile>
